<?xml version="1.0" encoding="utf-8"?>
<!-- Generator: Adobe Illustrator 26.3.1, SVG Export Plug-In . SVG Version: 6.00 Build 0)  -->
<svg version="1.1" id="Layer_1" xmlns="http://www.w3.org/2000/svg" xmlns:xlink="http://www.w3.org/1999/xlink" x="0px" y="0px"
	 viewBox="0 0 220.8 65.7" style="enable-background:new 0 0 220.8 65.7;" xml:space="preserve">
<style type="text/css">
	.st0{fill:#0032A9;}
	.st1{fill:#6F7182;}
	.st2{fill:url(#SVGID_1_);}
	.st3{fill:url(#SVGID_00000116928633520633270480000017976712683494624943_);}
	.st4{fill:url(#SVGID_00000132788434862989320820000010859597201377647031_);}
	.st5{fill:url(#SVGID_00000165929751723851975440000012551766456241680316_);}
	.st6{fill:url(#SVGID_00000003827846844148201310000013981043256702134414_);}
</style>
<g>
	<path class="st0" d="M68.6,30.9v6.9h7c4.2,0,6.8,2.6,6.8,7.9s-2.6,7.9-6.8,7.9h-4.4c-3.8,0-5.8-2.2-5.8-6.8V30.9H68.6z M68.6,40.8
		v5.8c0,2.7,1,3.8,3.6,3.8h3.1c2.8,0,4-1.4,4-4.8s-1.2-4.8-4-4.8H68.6z"/>
	<path class="st0" d="M89.4,30.9v22.7h-3.2V30.9H89.4z"/>
	<path class="st0" d="M97.1,37.7v9.5c0,1.9,1.4,3.3,3.9,3.3h2.6c2.5,0,3.9-1.4,3.9-3.3v-9.5h3.1v9.6c0,3.7-2.3,6.2-6.9,6.2h-2.9
		c-4.5,0-6.9-2.6-6.9-6.2v-9.6H97.1z"/>
	<path class="st0" d="M125.3,37.7c3.7,0,5.3,1.8,5.3,4.8c0,2.9-1.5,4.5-5.4,4.5h-7.5v1.1c0,1.3,0.7,2.2,2.4,2.2h9.7v3.1h-9.7
		c-4,0-5.5-2.2-5.5-5.2v-5.4c0-3,1.6-5.2,5.5-5.2H125.3z M117.8,44.6h7.4c1.7,0,2.3-0.7,2.3-1.9c0-1.2-0.7-2-2.2-2h-5.1
		c-1.7,0-2.4,1-2.4,2.2V44.6z"/>
	<path class="st1" d="M144.6,37.7c4,0,5.5,2.2,5.5,5.2v7.4c0,2.3-0.6,3.2-3.3,3.2h-7.4c-3.7,0-5.3-1.8-5.3-4.8
		c0-2.9,1.4-4.5,5.3-4.5h7.5v-1.2c0-1.2-0.7-2.2-2.4-2.2h-9.5v-3.1H144.6z M147,49.6v-3h-7.5c-1.7,0-2.3,0.7-2.3,1.9
		s0.6,1.9,2.2,1.9h6.6C146.8,50.4,147,50.2,147,49.6z"/>
	<path class="st1" d="M157.8,30.9v22.7h-3.2V30.9H157.8z"/>
	<path class="st1" d="M162.9,37.7V34h3.2v3.7h4.4v3.1h-4.4v7.5c0,1.8,0.6,2.4,2.1,2.4h2.2v2.9h-2.8c-3.3,0-4.7-1.3-4.7-5.4v-7.3
		h-2.2v-3.1H162.9z"/>
	<path class="st1" d="M183.7,37.7c4,0,5.5,2.2,5.5,5.2v7.4c0,2.3-0.6,3.2-3.3,3.2h-7.4c-3.7,0-5.3-1.8-5.3-4.8
		c0-2.9,1.4-4.5,5.3-4.5h7.5v-1.2c0-1.2-0.7-2.2-2.4-2.2h-9.5v-3.1H183.7z M186.1,49.6v-3h-7.5c-1.7,0-2.3,0.7-2.3,1.9
		s0.6,1.9,2.2,1.9h6.6C185.8,50.4,186.1,50.2,186.1,49.6z"/>
	<path class="st1" d="M196.9,31.7v3.7h-3.2v-3.7H196.9z M196.9,37.7v15.8h-3.2V37.7H196.9z"/>
	<path class="st1" d="M212.2,37.7v3.1h-5.6c-1.4,0-2,0.7-2,2v10.7h-3.2V42.3c0-3.2,1.2-4.6,4.3-4.6H212.2z"/>
</g>
<g>
	<linearGradient id="SVGID_1_" gradientUnits="userSpaceOnUse" x1="23.0885" y1="4.6191" x2="37.6892" y2="29.9083">
		<stop  offset="0" style="stop-color:#0036AD"/>
		<stop  offset="0.1078" style="stop-color:#0036AD"/>
		<stop  offset="0.687" style="stop-color:#F9B8D8"/>
		<stop  offset="0.7337" style="stop-color:#FAADB8"/>
		<stop  offset="0.8242" style="stop-color:#FB9A80"/>
		<stop  offset="0.902" style="stop-color:#FB8C57"/>
		<stop  offset="0.9631" style="stop-color:#FC833D"/>
		<stop  offset="1" style="stop-color:#FC8034"/>
	</linearGradient>
	<path class="st2" d="M32.5,8.2c-1.1,2.8-4.9,12-8.2,19.8c-0.7,1.8,12.1-1,13.5-3.3c2.3-3.6,2.1-5.8,1.7-7.8c0,0-1.7-7.1-2-8.3
		c-0.5-2-1.4-2.9-2.4-2.9C34.2,5.6,33.2,6.6,32.5,8.2"/>
	
		<linearGradient id="SVGID_00000006690938203495500550000007309442924891430064_" gradientUnits="userSpaceOnUse" x1="5.8342" y1="61.86" x2="28.5899" y2="39.1042">
		<stop  offset="0" style="stop-color:#0036AD"/>
		<stop  offset="0.1078" style="stop-color:#0036AD"/>
		<stop  offset="0.687" style="stop-color:#F9B8D8"/>
		<stop  offset="0.7337" style="stop-color:#FAADB8"/>
		<stop  offset="0.8242" style="stop-color:#FB9A80"/>
		<stop  offset="0.902" style="stop-color:#FB8C57"/>
		<stop  offset="0.9631" style="stop-color:#FC833D"/>
		<stop  offset="1" style="stop-color:#FC8034"/>
	</linearGradient>
	<path style="fill:url(#SVGID_00000006690938203495500550000007309442924891430064_);" d="M21.3,36.1c-3.4,8.3-7.3,17.5-8.8,20.8
		c-1.2,2.7,1.5,4.1,3.8,2.4c6.7-4.9,9.9-7.3,9.9-7.3c1.5-1.4,2.8-2.9,3.3-5.6c0.1-0.8,0.3-1.8,0.5-2.8c0.8-3.5-4.4-8.5-7.2-8.5
		C22.1,35.1,21.6,35.4,21.3,36.1"/>
	
		<linearGradient id="SVGID_00000071546875259575300080000011842598782877646267_" gradientUnits="userSpaceOnUse" x1="15.8609" y1="17.4837" x2="38.391" y2="40.0139">
		<stop  offset="0" style="stop-color:#006FDB"/>
		<stop  offset="1" style="stop-color:#0032A9"/>
	</linearGradient>
	<path style="fill:url(#SVGID_00000071546875259575300080000011842598782877646267_);" d="M33.6,25.4c-4,0.3-18,1.2-25.8,1.7
		c-3.1,0.2-4.4,2.6-1.3,4.7c2.6,1.8,12.3,8.4,18.7,13c2.7,1.9,3.4,4.8,0.9,7.2c2.1-1.6,2.1-2.1,3.1-4.1c1-1.9,4.9-11.8,6.1-15.1
		c0.3-0.8,3.4-8.4,3.4-8.4c1.1-2.8,1.4-4.8,0.7-7.6C40.5,22.7,35.8,25.3,33.6,25.4"/>
	
		<linearGradient id="SVGID_00000059298030777300752760000001366505079155794855_" gradientUnits="userSpaceOnUse" x1="68.565" y1="23.3451" x2="35.8942" y2="35.2363">
		<stop  offset="0" style="stop-color:#0036AD"/>
		<stop  offset="0.1078" style="stop-color:#0036AD"/>
		<stop  offset="0.687" style="stop-color:#F9B8D8"/>
		<stop  offset="0.7337" style="stop-color:#FAADB8"/>
		<stop  offset="0.8242" style="stop-color:#FB9A80"/>
		<stop  offset="0.902" style="stop-color:#FB8C57"/>
		<stop  offset="0.9631" style="stop-color:#FC833D"/>
		<stop  offset="1" style="stop-color:#FC8034"/>
	</linearGradient>
	<path style="fill:url(#SVGID_00000059298030777300752760000001366505079155794855_);" d="M57.6,23.7c-8.1,0.6-7.9,0.6-11.9,0.8
		c-2.5,0.2-4.7,2.3-5.5,3.9c0,0,0.4,13,2.2,11.6c6.7-4.9,14-10.3,16.4-12c2.6-1.9,2.5-4.4-0.8-4.4C57.9,23.7,57.8,23.7,57.6,23.7"/>
	
		<linearGradient id="SVGID_00000016061765912153647160000016154348667333214122_" gradientUnits="userSpaceOnUse" x1="34.737" y1="32.5354" x2="53.6393" y2="51.4378">
		<stop  offset="0" style="stop-color:#0036AD"/>
		<stop  offset="1" style="stop-color:#006FDB"/>
	</linearGradient>
	<path style="fill:url(#SVGID_00000016061765912153647160000016154348667333214122_);" d="M39.8,28.3c-1.6,4.3-5.1,12.6-6.7,16.8
		c-1.3,3.5,0.3,5.2,1.7,6.3c0,0,2.4,1.8,8.5,6c3.3,2.3,5.1,0.3,4.3-3c-0.8-3.2-3.7-15.6-5.5-23.6c-0.7-3.3-0.3-5.4,3.4-6.3
		C43.2,24.8,40.9,25.2,39.8,28.3"/>
</g>
</svg>
